<?xml version="1.0" encoding="utf-8"?>
<!-- Generator: Adobe Illustrator 27.5.0, SVG Export Plug-In . SVG Version: 6.00 Build 0)  -->
<svg version="1.1" id="Layer_1" xmlns="http://www.w3.org/2000/svg" xmlns:xlink="http://www.w3.org/1999/xlink" x="0px" y="0px"
	 viewBox="0 0 222.22 116.12" style="enable-background:new 0 0 222.22 116.12;" xml:space="preserve">
<style type="text/css">
	.st0{fill:#054F97;}
	.st1{fill:#3B6FA5;}
</style>
<g>
	<circle class="st0" cx="160.37" cy="79.01" r="0.96"/>
	<g>
		<path class="st1" d="M97.35,52.99h-7.5l-1.95,5.07h-3.88l7.9-19.9h3.33l7.9,19.9H99.3L97.35,52.99z M93.57,42.94
			c-0.7,2.08-1.32,3.82-1.86,5.22l-0.68,1.77h5.14l-0.68-1.77c-0.54-1.41-1.16-3.15-1.86-5.22H93.57z"/>
		<path class="st1" d="M123.77,43.45c0,0.86-0.19,1.65-0.58,2.37c-0.39,0.72-1.03,1.32-1.92,1.79v0.06c0.5,0.17,0.95,0.38,1.36,0.65
			s0.76,0.58,1.06,0.94c0.29,0.36,0.52,0.77,0.68,1.23c0.16,0.46,0.25,0.97,0.25,1.53c0,0.49-0.08,1.01-0.23,1.56
			c-0.15,0.56-0.42,1.09-0.81,1.61c-0.39,0.52-0.9,1-1.55,1.44s-1.46,0.78-2.44,1.04c-0.25,0.06-0.52,0.11-0.81,0.16
			c-0.29,0.05-0.62,0.09-0.97,0.13c-0.36,0.04-0.75,0.06-1.19,0.07s-0.93,0.02-1.47,0.02h-5.79v-19.9h6.92
			c1.48,0,2.67,0.15,3.57,0.45c0.67,0.22,1.26,0.5,1.75,0.86c0.5,0.35,0.91,0.74,1.23,1.17s0.56,0.89,0.71,1.37
			C123.7,42.48,123.77,42.96,123.77,43.45z M116.29,46.35c0.99,0,1.73-0.1,2.22-0.3c0.54-0.23,0.93-0.54,1.17-0.95
			c0.23-0.4,0.35-0.86,0.35-1.36c0-0.53-0.13-0.99-0.4-1.41c-0.27-0.41-0.72-0.72-1.37-0.92c-0.27-0.08-0.58-0.14-0.94-0.17
			c-0.36-0.03-0.8-0.05-1.32-0.05H113v5.15H116.29z M113,49.4v5.61h2.38c0.63,0,1.18-0.02,1.64-0.05s0.85-0.09,1.18-0.17
			c0.51-0.11,0.93-0.26,1.26-0.44c0.34-0.18,0.61-0.39,0.82-0.62c0.21-0.23,0.36-0.49,0.45-0.77c0.09-0.28,0.13-0.58,0.13-0.9
			c0-0.56-0.15-1.04-0.46-1.46c-0.31-0.42-0.79-0.73-1.44-0.94c-0.29-0.09-0.62-0.15-1.01-0.19c-0.39-0.04-0.88-0.06-1.49-0.06H113z
			"/>
		<path class="st1" d="M135.37,55.01h9.79v3.05h-13.43v-19.9h12.9v3.05h-9.25v5.15h7.94v3.05h-7.94V55.01z"/>
		<path class="st1" d="M167.13,44.13c0,1.39-0.38,2.57-1.15,3.53c-0.77,0.97-1.96,1.68-3.56,2.15v0.06l5.92,8.18h-4.37l-5.42-7.71
			h-2.5v7.71h-3.64v-19.9h6.05c1,0,1.93,0.06,2.8,0.17c0.86,0.11,1.6,0.29,2.22,0.51c1.17,0.45,2.07,1.11,2.71,1.99
			S167.13,42.81,167.13,44.13z M157.85,47.3c0.83,0,1.54-0.04,2.12-0.11c0.58-0.07,1.07-0.19,1.47-0.33
			c0.73-0.28,1.24-0.66,1.52-1.14c0.28-0.48,0.42-1.03,0.42-1.66c0-0.54-0.11-1.01-0.33-1.42c-0.22-0.41-0.6-0.74-1.14-0.97
			c-0.35-0.16-0.78-0.28-1.31-0.35c-0.53-0.07-1.18-0.11-1.95-0.11h-2.6v6.1H157.85z"/>
		<path class="st1" d="M183.06,58.06h-3.64V41.2h-6.43v-3.05h16.48v3.05h-6.41V58.06z"/>
		<path class="st1" d="M210.13,38.15v1.98l-10.65,14.88h10.79v3.05h-15.63v-1.96L205.3,41.2h-10.4v-3.05H210.13z"/>
	</g>
	<g>
		<path class="st0" d="M109.46,65.89c0-0.88,0.18-1.65,0.53-2.33c0.36-0.67,0.85-1.19,1.5-1.56s1.38-0.55,2.21-0.55
			c0.34,0,0.69,0.03,1.03,0.1c0.34,0.07,0.59,0.14,0.74,0.23v0.53c-0.64-0.23-1.22-0.35-1.71-0.35c-0.69,0-1.31,0.15-1.87,0.45
			s-1.01,0.74-1.34,1.33c-0.33,0.59-0.5,1.31-0.5,2.16c0,1.21,0.33,2.13,0.99,2.78c0.66,0.65,1.61,0.97,2.85,0.97
			c0.58,0,1.13-0.11,1.67-0.34v0.52c-0.21,0.11-0.47,0.19-0.78,0.25s-0.63,0.09-0.97,0.09c-1.4,0-2.47-0.37-3.22-1.11
			C109.83,68.32,109.46,67.26,109.46,65.89z"/>
		<path class="st0" d="M121.74,65.82c0-0.83,0.16-1.58,0.49-2.25c0.32-0.67,0.78-1.19,1.35-1.56c0.58-0.38,1.23-0.56,1.97-0.56
			c0.77,0,1.44,0.19,2.01,0.56c0.58,0.37,1.02,0.89,1.33,1.55c0.31,0.66,0.47,1.41,0.47,2.25c0,0.83-0.16,1.57-0.48,2.24
			c-0.32,0.66-0.77,1.18-1.35,1.55c-0.58,0.38-1.23,0.56-1.95,0.56c-0.77,0-1.45-0.19-2.03-0.56c-0.58-0.37-1.03-0.89-1.34-1.55
			C121.9,67.41,121.74,66.66,121.74,65.82z M128.76,65.82c0-0.8-0.14-1.5-0.43-2.08c-0.29-0.58-0.67-1.03-1.16-1.33
			c-0.49-0.3-1.03-0.46-1.63-0.46c-0.59,0-1.13,0.15-1.62,0.46c-0.49,0.3-0.88,0.75-1.17,1.33c-0.29,0.58-0.43,1.28-0.43,2.08
			c0,0.81,0.14,1.51,0.43,2.09c0.29,0.58,0.68,1.02,1.17,1.32c0.49,0.3,1.04,0.45,1.64,0.45c0.59,0,1.13-0.15,1.61-0.45
			c0.48-0.3,0.86-0.74,1.15-1.32C128.62,67.33,128.76,66.63,128.76,65.82z"/>
		<path class="st0" d="M135.72,69.72v-0.6c0.21,0.13,0.54,0.25,1,0.36s0.85,0.18,1.16,0.18c0.75,0,1.34-0.14,1.75-0.42
			c0.42-0.28,0.62-0.76,0.62-1.43c0-0.34-0.07-0.62-0.21-0.84c-0.14-0.22-0.33-0.4-0.58-0.53c-0.24-0.13-0.68-0.29-1.31-0.46
			c-0.54-0.14-0.98-0.28-1.31-0.41c-0.33-0.14-0.61-0.35-0.83-0.63c-0.23-0.29-0.34-0.67-0.34-1.16c0-0.7,0.25-1.26,0.76-1.68
			c0.5-0.42,1.17-0.63,1.98-0.63c0.54,0,1.06,0.08,1.57,0.23c0.21,0.08,0.39,0.15,0.55,0.23v0.6c-0.25-0.12-0.47-0.21-0.66-0.29
			c-0.18-0.07-0.4-0.14-0.66-0.19c-0.26-0.05-0.54-0.08-0.84-0.09c-0.72,0-1.26,0.17-1.61,0.5s-0.52,0.78-0.52,1.34
			c0,0.35,0.08,0.63,0.23,0.83c0.15,0.2,0.36,0.36,0.62,0.46c0.26,0.11,0.65,0.23,1.16,0.38c0.58,0.16,1.03,0.31,1.36,0.44
			c0.33,0.14,0.61,0.35,0.85,0.65c0.24,0.3,0.36,0.71,0.36,1.22c0,0.75-0.26,1.34-0.78,1.76c-0.52,0.42-1.25,0.63-2.21,0.63
			c-0.39,0-0.8-0.05-1.23-0.16S135.89,69.81,135.72,69.72z"/>
		<path class="st0" d="M148.27,61.62l2.52,5.87l0.76,1.88h0.02l3.24-7.74h0.86v8.4h-0.54v-3.88c0-1.26,0.03-2.59,0.09-4h-0.05
			c-0.62,1.39-1.01,2.27-1.16,2.62l-2.17,5.26h-0.54l-2.23-5.26c-0.11-0.26-0.5-1.13-1.17-2.62h-0.04c0.06,1.78,0.09,3.11,0.09,4
			v3.88h-0.55v-8.4H148.27z"/>
		<path class="st0" d="M162.57,61.62h4.78v0.5h-4.23v3.34H167v0.5h-3.88v3.55h4.48v0.5h-5.03V61.62z"/>
		<path class="st0" d="M176.2,62.14h-2.89v-0.51h6.36v0.51h-2.91v7.88h-0.55V62.14z"/>
		<path class="st0" d="M185.72,61.62h0.55v8.4h-0.55V61.62z"/>
		<path class="st0" d="M192.9,65.89c0-0.88,0.18-1.65,0.53-2.33c0.36-0.67,0.85-1.19,1.5-1.56s1.38-0.55,2.21-0.55
			c0.34,0,0.69,0.03,1.03,0.1c0.34,0.07,0.59,0.14,0.74,0.23v0.53c-0.64-0.23-1.22-0.35-1.71-0.35c-0.69,0-1.31,0.15-1.87,0.45
			s-1.01,0.74-1.34,1.33c-0.33,0.59-0.5,1.31-0.5,2.16c0,1.21,0.33,2.13,0.99,2.78c0.66,0.65,1.61,0.97,2.85,0.97
			c0.58,0,1.13-0.11,1.67-0.34v0.52c-0.21,0.11-0.47,0.19-0.78,0.25s-0.63,0.09-0.97,0.09c-1.4,0-2.47-0.37-3.22-1.11
			C193.27,68.32,192.9,67.26,192.9,65.89z"/>
		<path class="st0" d="M205.18,69.72v-0.6c0.21,0.13,0.54,0.25,1,0.36s0.85,0.18,1.16,0.18c0.75,0,1.34-0.14,1.75-0.42
			c0.42-0.28,0.62-0.76,0.62-1.43c0-0.34-0.07-0.62-0.21-0.84c-0.14-0.22-0.33-0.4-0.58-0.53c-0.24-0.13-0.68-0.29-1.31-0.46
			c-0.54-0.14-0.98-0.28-1.31-0.41c-0.33-0.14-0.61-0.35-0.83-0.63c-0.23-0.29-0.34-0.67-0.34-1.16c0-0.7,0.25-1.26,0.76-1.68
			c0.5-0.42,1.17-0.63,1.98-0.63c0.54,0,1.06,0.08,1.57,0.23c0.21,0.08,0.39,0.15,0.55,0.23v0.6c-0.25-0.12-0.47-0.21-0.66-0.29
			c-0.18-0.07-0.4-0.14-0.66-0.19c-0.26-0.05-0.54-0.08-0.84-0.09c-0.72,0-1.26,0.17-1.61,0.5s-0.52,0.78-0.52,1.34
			c0,0.35,0.08,0.63,0.23,0.83c0.15,0.2,0.36,0.36,0.62,0.46c0.26,0.11,0.65,0.23,1.16,0.38c0.58,0.16,1.03,0.31,1.36,0.44
			c0.33,0.14,0.61,0.35,0.85,0.65c0.24,0.3,0.36,0.71,0.36,1.22c0,0.75-0.26,1.34-0.78,1.76c-0.52,0.42-1.25,0.63-2.21,0.63
			c-0.39,0-0.8-0.05-1.23-0.16S205.35,69.81,205.18,69.72z"/>
	</g>
	<path class="st0" d="M144.63,29.63c0.17-0.86,0.29-1.84,0.35-2.95c-2.95,4.26-9.32,6.03-13.16,6.61c2.23,0.43,6.22,0.78,10.91-2.57
		c-2.65,2.62-5.95,3.93-9.53,3.63C137.67,35.75,143.2,36.9,144.63,29.63z"/>
	<g>
		<path class="st1" d="M69.18,88.76c-1.71,2.02-5.08,3.31-9.85,4.21c-4.39,0.83-7.39,2.23-8.79,4.26c-0.73,1.06-1.26,3.19-0.68,5.42
			c0.33-1.35,1.25-2.84,3.05-4.21c2.8-2.13,7.4-1.52,11.77-4.25c-2.82,3.24-7.32,2.72-10.29,4.64c-1.73,1.11-3.18,3.37-3.04,5.28
			c1.34-1.67,4.96-2.37,8.16-3.15C64.58,99.73,69.56,97.16,69.18,88.76z"/>
		<path class="st1" d="M65.9,77.26c-0.51-1.03-1.17-2.15-1.99-3.35c0.32,6.8-4.9,13.73-8.45,17.4c2.68-1.33,7.11-4.16,9.33-11.39
			c-0.66,4.85-3.07,8.85-7.04,11.39C63.52,89.2,70.21,85.99,65.9,77.26z"/>
		<path class="st1" d="M49.15,95.46c-0.81-3.1,1.32-5.18,2.16-6.15c0.99-1.14,3.21-2.98,3.6-4.28c0.1,0.98-0.98,2.35-2.99,4.65
			c-1.9,2.18-2.52,4.22-1.6,5.82c1.65-4.71,9.64-6.55,5-14.24c-0.03-0.06-0.07-0.11-0.1-0.17C54.26,85.7,45.36,88.53,49.15,95.46z"
			/>
	</g>
	<g>
		<path class="st0" d="M59.48,105.61c-26.22,0-47.55-21.33-47.55-47.55s21.33-47.55,47.55-47.55c14.18,0,27.51,6.26,36.58,17.17
			l-2.31,1.92c-8.5-10.22-20.99-16.08-34.26-16.08c-24.56,0-44.54,19.98-44.54,44.54s19.98,44.54,44.54,44.54
			c20.18,0,37.89-13.61,43.05-33.09l2.91,0.77C99.92,91.08,81.02,105.61,59.48,105.61z"/>
	</g>
	<g>
		<polygon class="st0" points="89.8,92.09 55.44,18.25 23.65,85.85 20.93,84.57 55.46,11.14 92.53,90.82 		"/>
	</g>
	<g>
		<polygon class="st0" points="32.16,94.68 29.41,93.45 44.98,58.91 77.02,58.91 77.02,61.92 46.93,61.92 		"/>
	</g>
	<g>
		
			<rect x="4.14" y="54.84" transform="matrix(0.4255 -0.9049 0.9049 0.4255 -26.6161 70.7527)" class="st0" width="76.56" height="3.01"/>
	</g>
	<g>
		<path class="st0" d="M113.96,88.39v0.37h-3.77v-5.65h3.69v0.37h-3.29v2.22h2.87v0.35h-2.87v2.35H113.96z"/>
		<path class="st0" d="M114.98,82.95h0.41v5.02c0,0.19,0.04,0.32,0.12,0.4c0.08,0.07,0.18,0.11,0.31,0.11
			c0.08,0,0.17-0.01,0.26-0.02c0.09-0.02,0.17-0.04,0.24-0.06l0.08,0.33c-0.09,0.03-0.2,0.06-0.33,0.09s-0.25,0.04-0.34,0.04
			c-0.22,0-0.4-0.07-0.54-0.2c-0.13-0.14-0.2-0.32-0.2-0.55V82.95z"/>
		<path class="st0" d="M118.77,88.84c-0.29,0-0.56-0.06-0.81-0.17c-0.25-0.11-0.47-0.27-0.65-0.47c-0.18-0.2-0.33-0.43-0.43-0.69
			s-0.16-0.54-0.16-0.83c0-0.39,0.09-0.75,0.26-1.06c0.18-0.32,0.42-0.57,0.72-0.76c0.31-0.19,0.65-0.29,1.04-0.29
			c0.39,0,0.74,0.1,1.04,0.29c0.3,0.2,0.54,0.45,0.72,0.77c0.18,0.32,0.27,0.67,0.27,1.05c0,0.03,0,0.06,0,0.1
			c0,0.03,0,0.06-0.01,0.08h-3.63c0.02,0.31,0.11,0.59,0.26,0.85c0.15,0.25,0.35,0.45,0.59,0.6c0.24,0.15,0.5,0.22,0.79,0.22
			c0.29,0,0.56-0.07,0.81-0.22s0.43-0.34,0.53-0.57l0.35,0.1c-0.08,0.2-0.21,0.37-0.38,0.53c-0.17,0.15-0.37,0.27-0.61,0.36
			C119.27,88.8,119.03,88.84,118.77,88.84z M117.12,86.55h3.27c-0.02-0.32-0.11-0.61-0.25-0.86s-0.34-0.44-0.58-0.59
			c-0.24-0.14-0.51-0.21-0.8-0.21s-0.56,0.07-0.8,0.21c-0.24,0.14-0.43,0.34-0.58,0.59S117.15,86.23,117.12,86.55z"/>
		<path class="st0" d="M122.82,88.76l-1.73-4.13h0.42l1.52,3.71l1.53-3.71h0.4l-1.73,4.13H122.82z"/>
		<path class="st0" d="M125.3,87.57c0-0.25,0.07-0.46,0.22-0.65c0.15-0.18,0.35-0.33,0.61-0.43c0.26-0.1,0.56-0.15,0.9-0.15
			c0.21,0,0.43,0.02,0.66,0.06c0.23,0.04,0.43,0.09,0.61,0.15v-0.39c0-0.38-0.11-0.68-0.33-0.91c-0.22-0.23-0.52-0.34-0.91-0.34
			c-0.21,0-0.42,0.04-0.64,0.13c-0.22,0.08-0.45,0.21-0.68,0.37l-0.17-0.29c0.27-0.18,0.53-0.32,0.78-0.41s0.5-0.14,0.75-0.14
			c0.49,0,0.88,0.15,1.17,0.44c0.29,0.29,0.43,0.69,0.43,1.19v2.05c0,0.06,0.01,0.11,0.04,0.14s0.07,0.05,0.13,0.06v0.33
			c-0.05,0-0.09,0.01-0.12,0.01c-0.03,0-0.06,0-0.08,0c-0.1-0.02-0.18-0.06-0.24-0.13c-0.06-0.07-0.09-0.15-0.09-0.23v-0.33
			c-0.19,0.24-0.44,0.42-0.74,0.56s-0.61,0.2-0.94,0.2c-0.26,0-0.49-0.06-0.7-0.17s-0.37-0.26-0.49-0.46
			C125.36,88.02,125.3,87.81,125.3,87.57z M128.15,87.91c0.05-0.07,0.09-0.13,0.12-0.2s0.04-0.12,0.04-0.17v-0.68
			c-0.19-0.07-0.39-0.13-0.6-0.17c-0.21-0.04-0.42-0.05-0.64-0.05c-0.41,0-0.75,0.08-1.01,0.25c-0.26,0.16-0.39,0.39-0.39,0.67
			c0,0.17,0.04,0.34,0.13,0.48c0.09,0.15,0.22,0.27,0.38,0.36c0.16,0.09,0.35,0.13,0.56,0.13c0.3,0,0.57-0.06,0.82-0.17
			S128.02,88.09,128.15,87.91z"/>
		<path class="st0" d="M131.73,88.59c-0.03,0.01-0.08,0.04-0.16,0.08c-0.08,0.04-0.18,0.08-0.3,0.12c-0.12,0.03-0.26,0.05-0.41,0.05
			c-0.14,0-0.28-0.03-0.4-0.08c-0.12-0.06-0.22-0.14-0.3-0.25s-0.11-0.25-0.11-0.41v-3.14h-0.58v-0.33h0.58v-1.42h0.4v1.42h0.96
			v0.33h-0.96V88c0.01,0.16,0.07,0.27,0.17,0.35c0.1,0.08,0.22,0.12,0.35,0.12c0.17,0,0.31-0.03,0.43-0.08s0.19-0.09,0.21-0.11
			L131.73,88.59z"/>
		<path class="st0" d="M134.11,88.84c-0.29,0-0.56-0.06-0.81-0.17c-0.25-0.11-0.47-0.27-0.65-0.47c-0.18-0.2-0.33-0.43-0.43-0.69
			s-0.16-0.54-0.16-0.83c0-0.39,0.09-0.75,0.26-1.06c0.18-0.32,0.42-0.57,0.72-0.76c0.31-0.19,0.65-0.29,1.04-0.29
			c0.39,0,0.74,0.1,1.04,0.29c0.3,0.2,0.54,0.45,0.72,0.77c0.18,0.32,0.27,0.67,0.27,1.05c0,0.03,0,0.06,0,0.1
			c0,0.03,0,0.06-0.01,0.08h-3.63c0.02,0.31,0.11,0.59,0.26,0.85c0.15,0.25,0.35,0.45,0.59,0.6c0.24,0.15,0.5,0.22,0.79,0.22
			c0.29,0,0.56-0.07,0.81-0.22s0.43-0.34,0.53-0.57l0.35,0.1c-0.08,0.2-0.21,0.37-0.38,0.53c-0.17,0.15-0.37,0.27-0.61,0.36
			C134.61,88.8,134.37,88.84,134.11,88.84z M132.46,86.55h3.27c-0.02-0.32-0.11-0.61-0.25-0.86s-0.34-0.44-0.58-0.59
			c-0.24-0.14-0.51-0.21-0.8-0.21s-0.56,0.07-0.8,0.21c-0.24,0.14-0.43,0.34-0.58,0.59S132.49,86.23,132.46,86.55z"/>
		<path class="st0" d="M138.74,83.11l1.97,3.13l1.98-3.13h0.45l-2.23,3.52v2.13h-0.41v-2.15l-2.22-3.5H138.74z"/>
		<path class="st0" d="M144.91,88.84c-0.29,0-0.56-0.06-0.81-0.17c-0.25-0.11-0.46-0.27-0.64-0.46s-0.32-0.43-0.42-0.69
			c-0.1-0.26-0.15-0.53-0.15-0.82c0-0.29,0.05-0.56,0.15-0.82c0.1-0.26,0.24-0.48,0.43-0.68c0.18-0.2,0.4-0.35,0.65-0.47
			c0.25-0.11,0.51-0.17,0.8-0.17c0.29,0,0.55,0.06,0.8,0.17c0.24,0.11,0.46,0.27,0.64,0.47s0.33,0.43,0.43,0.68
			c0.1,0.26,0.15,0.53,0.15,0.82c0,0.29-0.05,0.56-0.15,0.82c-0.1,0.26-0.24,0.49-0.43,0.69c-0.18,0.2-0.4,0.35-0.64,0.46
			S145.2,88.84,144.91,88.84z M143.29,86.72c0,0.32,0.07,0.62,0.22,0.88s0.34,0.48,0.58,0.64c0.24,0.16,0.51,0.24,0.81,0.24
			c0.3,0,0.57-0.08,0.82-0.24s0.44-0.38,0.59-0.65c0.15-0.27,0.22-0.57,0.22-0.89s-0.07-0.62-0.22-0.89
			c-0.15-0.27-0.34-0.48-0.59-0.65s-0.52-0.24-0.81-0.24c-0.3,0-0.57,0.08-0.81,0.25c-0.24,0.16-0.44,0.38-0.59,0.65
			S143.29,86.39,143.29,86.72z"/>
		<path class="st0" d="M147.85,87.01v-2.38h0.4v2.33c0,0.51,0.09,0.9,0.26,1.15c0.17,0.25,0.43,0.38,0.78,0.38
			c0.23,0,0.46-0.05,0.67-0.16s0.41-0.25,0.57-0.44s0.29-0.41,0.37-0.66v-2.61h0.4v3.61c0,0.06,0.01,0.11,0.04,0.14
			c0.03,0.03,0.07,0.05,0.12,0.06v0.33c-0.05,0-0.09,0.01-0.12,0.01c-0.03,0-0.05,0-0.08-0.01c-0.09-0.01-0.17-0.05-0.22-0.12
			c-0.06-0.07-0.09-0.15-0.1-0.24l-0.01-0.62c-0.18,0.33-0.43,0.59-0.74,0.78c-0.32,0.19-0.66,0.28-1.02,0.28
			c-0.43,0-0.76-0.15-0.99-0.46C147.96,88.07,147.85,87.62,147.85,87.01z"/>
		<path class="st0" d="M154.52,84.98c-0.37,0.01-0.7,0.12-0.97,0.33c-0.28,0.21-0.47,0.5-0.59,0.86v2.59h-0.4v-4.13h0.38v1.01
			c0.14-0.29,0.33-0.53,0.57-0.71c0.24-0.18,0.49-0.29,0.76-0.31c0.05,0,0.1-0.01,0.14-0.01c0.04,0,0.08,0,0.1,0V84.98z"/>
		<path class="st0" d="M161.42,87.3c0,0.28-0.07,0.52-0.2,0.74c-0.13,0.22-0.32,0.4-0.55,0.53c-0.23,0.13-0.49,0.2-0.77,0.2h-2.64
			v-5.65h2.63c0.27,0,0.5,0.07,0.69,0.21c0.19,0.14,0.34,0.32,0.45,0.54c0.1,0.22,0.16,0.45,0.16,0.69c0,0.28-0.07,0.54-0.21,0.78
			c-0.14,0.24-0.34,0.42-0.6,0.53c0.32,0.1,0.58,0.27,0.77,0.54S161.42,86.96,161.42,87.3z M157.66,83.47v2.26h2.07
			c0.21,0,0.39-0.05,0.55-0.16c0.16-0.11,0.28-0.25,0.37-0.42c0.09-0.17,0.13-0.35,0.13-0.54c0-0.21-0.04-0.4-0.13-0.57
			s-0.2-0.31-0.35-0.41s-0.33-0.16-0.52-0.16H157.66z M161.01,87.24c0-0.2-0.05-0.39-0.14-0.57c-0.09-0.17-0.22-0.32-0.38-0.43
			s-0.34-0.17-0.54-0.17h-2.29v2.32h2.24c0.21,0,0.4-0.05,0.57-0.16s0.3-0.25,0.4-0.43C160.96,87.62,161.01,87.44,161.01,87.24z"/>
		<path class="st0" d="M164.36,84.98c-0.37,0.01-0.7,0.12-0.97,0.33c-0.28,0.21-0.47,0.5-0.59,0.86v2.59h-0.4v-4.13h0.38v1.01
			c0.14-0.29,0.33-0.53,0.57-0.71c0.24-0.18,0.49-0.29,0.76-0.31c0.05,0,0.1-0.01,0.14-0.01c0.04,0,0.08,0,0.1,0V84.98z"/>
		<path class="st0" d="M164.74,87.57c0-0.25,0.07-0.46,0.22-0.65c0.15-0.18,0.35-0.33,0.61-0.43c0.26-0.1,0.56-0.15,0.9-0.15
			c0.21,0,0.43,0.02,0.66,0.06c0.23,0.04,0.43,0.09,0.61,0.15v-0.39c0-0.38-0.11-0.68-0.33-0.91c-0.22-0.23-0.52-0.34-0.91-0.34
			c-0.21,0-0.42,0.04-0.64,0.13c-0.22,0.08-0.45,0.21-0.68,0.37l-0.17-0.29c0.27-0.18,0.53-0.32,0.78-0.41s0.5-0.14,0.75-0.14
			c0.49,0,0.88,0.15,1.17,0.44c0.29,0.29,0.43,0.69,0.43,1.19v2.05c0,0.06,0.01,0.11,0.04,0.14s0.07,0.05,0.13,0.06v0.33
			c-0.05,0-0.09,0.01-0.12,0.01c-0.03,0-0.06,0-0.08,0c-0.1-0.02-0.18-0.06-0.24-0.13c-0.06-0.07-0.09-0.15-0.09-0.23v-0.33
			c-0.19,0.24-0.44,0.42-0.74,0.56s-0.61,0.2-0.94,0.2c-0.26,0-0.49-0.06-0.7-0.17s-0.37-0.26-0.49-0.46
			C164.8,88.02,164.74,87.81,164.74,87.57z M167.59,87.91c0.05-0.07,0.09-0.13,0.12-0.2s0.04-0.12,0.04-0.17v-0.68
			c-0.19-0.07-0.39-0.13-0.6-0.17c-0.21-0.04-0.42-0.05-0.64-0.05c-0.41,0-0.75,0.08-1.01,0.25c-0.26,0.16-0.39,0.39-0.39,0.67
			c0,0.17,0.04,0.34,0.13,0.48c0.09,0.15,0.22,0.27,0.38,0.36c0.16,0.09,0.35,0.13,0.56,0.13c0.3,0,0.57-0.06,0.82-0.17
			S167.47,88.09,167.59,87.91z"/>
		<path class="st0" d="M172.74,88.76h-0.4v-2.3c0-0.53-0.08-0.92-0.23-1.16c-0.15-0.25-0.39-0.37-0.72-0.37
			c-0.23,0-0.46,0.06-0.69,0.17c-0.23,0.11-0.42,0.26-0.59,0.46s-0.29,0.41-0.36,0.65v2.55h-0.4v-4.13h0.37v0.99
			c0.11-0.21,0.26-0.39,0.45-0.55c0.19-0.16,0.39-0.28,0.62-0.37s0.46-0.13,0.71-0.13c0.23,0,0.42,0.04,0.58,0.12
			c0.16,0.08,0.28,0.2,0.38,0.35c0.1,0.15,0.17,0.34,0.21,0.57c0.04,0.23,0.06,0.49,0.06,0.78V88.76z"/>
		<path class="st0" d="M173.66,86.71c0-0.39,0.08-0.74,0.25-1.06c0.16-0.32,0.39-0.58,0.68-0.78c0.29-0.2,0.61-0.3,0.98-0.3
			c0.36,0,0.68,0.1,0.96,0.29c0.28,0.19,0.5,0.42,0.66,0.68v-2.59h0.4v5.29c0,0.06,0.01,0.11,0.04,0.14
			c0.03,0.03,0.07,0.05,0.12,0.06v0.33c-0.08,0.01-0.15,0.01-0.19,0.01c-0.09-0.02-0.17-0.06-0.24-0.13s-0.1-0.15-0.1-0.24v-0.46
			c-0.17,0.28-0.4,0.5-0.68,0.66c-0.29,0.16-0.58,0.25-0.88,0.25c-0.29,0-0.55-0.06-0.8-0.18s-0.46-0.28-0.63-0.48
			c-0.18-0.2-0.32-0.43-0.41-0.68C173.71,87.25,173.66,86.98,173.66,86.71z M177.18,87.37v-1.36c-0.07-0.2-0.19-0.38-0.36-0.55
			c-0.16-0.17-0.35-0.3-0.56-0.4s-0.41-0.15-0.61-0.15c-0.24,0-0.46,0.05-0.65,0.15c-0.19,0.1-0.36,0.24-0.5,0.4
			s-0.25,0.36-0.32,0.58c-0.07,0.21-0.11,0.43-0.11,0.66c0,0.23,0.04,0.46,0.13,0.67c0.08,0.21,0.2,0.4,0.35,0.57
			s0.33,0.3,0.53,0.39c0.2,0.09,0.42,0.14,0.65,0.14c0.14,0,0.29-0.03,0.46-0.09c0.16-0.06,0.32-0.14,0.46-0.24
			c0.15-0.1,0.27-0.22,0.37-0.36S177.16,87.52,177.18,87.37z"/>
		<path class="st0" d="M182.9,83.15h0.4l0.84,2.05l0.84-2.05h0.4l-0.99,2.38l1.19,2.75l2.17-5.17h0.45l-2.42,5.65h-0.37l-1.24-2.91
			l-1.25,2.91h-0.37l-2.41-5.65h0.44l2.17,5.17l1.17-2.75L182.9,83.15z"/>
		<path class="st0" d="M188.92,83.68v-0.73h0.4v0.73H188.92z M188.92,88.76v-4.14h0.4v4.14H188.92z"/>
		<path class="st0" d="M192.41,88.59c-0.03,0.01-0.08,0.04-0.16,0.08c-0.08,0.04-0.18,0.08-0.3,0.12c-0.12,0.03-0.26,0.05-0.41,0.05
			c-0.14,0-0.28-0.03-0.4-0.08c-0.12-0.06-0.22-0.14-0.3-0.25s-0.11-0.25-0.11-0.41v-3.14h-0.58v-0.33h0.58v-1.42h0.4v1.42h0.96
			v0.33h-0.96V88c0.01,0.16,0.07,0.27,0.17,0.35c0.1,0.08,0.22,0.12,0.35,0.12c0.17,0,0.31-0.03,0.43-0.08s0.19-0.09,0.21-0.11
			L192.41,88.59z"/>
		<path class="st0" d="M196.5,88.76h-0.4v-2.3c0-0.51-0.09-0.89-0.26-1.15c-0.18-0.26-0.43-0.38-0.76-0.38
			c-0.22,0-0.44,0.06-0.65,0.17c-0.22,0.11-0.41,0.26-0.57,0.46s-0.27,0.41-0.34,0.65v2.55h-0.4v-5.81h0.4v2.67
			c0.17-0.32,0.41-0.58,0.71-0.77s0.62-0.29,0.96-0.29c0.23,0,0.43,0.04,0.6,0.13c0.16,0.08,0.3,0.21,0.41,0.37
			c0.11,0.16,0.18,0.35,0.24,0.57c0.05,0.22,0.08,0.48,0.08,0.76V88.76z"/>
		<path class="st0" d="M202.14,88.8c-0.45,0-0.83-0.08-1.13-0.24s-0.54-0.38-0.72-0.65s-0.31-0.58-0.39-0.92
			c-0.08-0.34-0.12-0.69-0.12-1.04v-2.84h0.41v2.84c0,0.31,0.03,0.61,0.1,0.91s0.17,0.56,0.31,0.8c0.15,0.24,0.34,0.42,0.6,0.56
			c0.25,0.14,0.57,0.21,0.94,0.21c0.38,0,0.7-0.07,0.95-0.21c0.25-0.14,0.45-0.33,0.6-0.57c0.15-0.24,0.25-0.5,0.31-0.8
			c0.06-0.29,0.09-0.59,0.09-0.9v-2.84h0.41v2.84c0,0.38-0.04,0.74-0.12,1.08c-0.08,0.34-0.22,0.65-0.4,0.91
			c-0.19,0.27-0.43,0.48-0.72,0.63C202.94,88.72,202.58,88.8,202.14,88.8z"/>
		<path class="st0" d="M206.97,88.84c-0.33,0-0.63-0.06-0.92-0.17s-0.53-0.28-0.74-0.51l0.18-0.28c0.23,0.22,0.46,0.38,0.69,0.47
			c0.23,0.1,0.49,0.15,0.76,0.15c0.36,0,0.64-0.07,0.86-0.22c0.22-0.15,0.33-0.35,0.33-0.62c0-0.18-0.05-0.32-0.16-0.42
			s-0.25-0.18-0.45-0.24c-0.19-0.06-0.43-0.13-0.71-0.19c-0.28-0.07-0.52-0.15-0.71-0.23c-0.19-0.08-0.34-0.18-0.43-0.31
			c-0.09-0.13-0.14-0.3-0.14-0.52c0-0.27,0.07-0.49,0.2-0.67c0.13-0.18,0.32-0.31,0.55-0.4c0.23-0.09,0.49-0.13,0.77-0.13
			c0.32,0,0.61,0.05,0.85,0.16c0.24,0.11,0.43,0.25,0.55,0.42l-0.21,0.25c-0.13-0.17-0.3-0.3-0.52-0.38
			c-0.21-0.08-0.45-0.12-0.7-0.12c-0.19,0-0.37,0.03-0.54,0.08s-0.31,0.14-0.41,0.26c-0.1,0.12-0.16,0.28-0.16,0.48
			c0,0.16,0.04,0.28,0.12,0.37s0.19,0.16,0.35,0.22c0.15,0.06,0.34,0.11,0.57,0.18c0.32,0.08,0.6,0.16,0.84,0.25
			c0.23,0.08,0.41,0.19,0.54,0.33c0.13,0.13,0.19,0.32,0.19,0.57c0,0.38-0.14,0.67-0.43,0.89
			C207.83,88.73,207.45,88.84,206.97,88.84z"/>
		<path class="st0" d="M209.39,88.76v-0.68h0.35v0.68H209.39z"/>
	</g>
	<g>
		<path class="st0" d="M209.74,79.01c-15.38-0.24-31.66-0.36-47.97-0.37c0.03,0.12,0.05,0.24,0.05,0.37c0,0.13-0.02,0.25-0.05,0.37
			C178.09,79.37,194.37,79.25,209.74,79.01z"/>
		<path class="st0" d="M158.91,79.01c0-0.13,0.02-0.25,0.05-0.37c-16.58,0.01-33.14,0.13-48.77,0.37
			c15.63,0.24,32.19,0.36,48.77,0.37C158.94,79.26,158.91,79.14,158.91,79.01z"/>
	</g>
</g>
</svg>
