<?xml version="1.0" encoding="utf-8"?>
<!-- Generator: Adobe Illustrator 26.0.1, SVG Export Plug-In . SVG Version: 6.00 Build 0)  -->
<svg version="1.1" id="Layer_1" xmlns="http://www.w3.org/2000/svg" xmlns:xlink="http://www.w3.org/1999/xlink" x="0px" y="0px"
	 viewBox="0 0 841.89 595.28" style="enable-background:new 0 0 841.89 595.28;" xml:space="preserve">
<style type="text/css">
	.st0{fill:#3B6FA5;}
	.st1{fill:#054F97;}
</style>
<g>
	<g>
		<path class="st0" d="M363.92,276.61h-31.06l-8.08,21.02h-16.09l32.74-82.48h13.81l32.74,82.48H372L363.92,276.61z M348.27,235
			c-2.89,8.63-5.46,15.84-7.72,21.63l-2.82,7.34h21.32l-2.82-7.34c-2.24-5.85-4.81-13.06-7.72-21.63H348.27z"/>
		<path class="st0" d="M473.43,237.1c0,3.57-0.8,6.85-2.4,9.83c-1.6,2.98-4.25,5.46-7.95,7.43v0.25c2.06,0.7,3.94,1.59,5.64,2.68
			c1.7,1.09,3.16,2.38,4.38,3.88c1.21,1.5,2.16,3.19,2.83,5.08c0.68,1.89,1.02,4.01,1.02,6.35c0,2.02-0.32,4.17-0.96,6.48
			c-0.64,2.3-1.76,4.53-3.36,6.69c-1.6,2.16-3.74,4.14-6.41,5.95c-2.67,1.81-6.04,3.25-10.11,4.31c-1.03,0.25-2.15,0.47-3.36,0.68
			c-1.21,0.2-2.56,0.38-4.04,0.52c-1.48,0.15-3.12,0.25-4.93,0.31c-1.81,0.06-3.84,0.09-6.1,0.09h-23.98v-82.48h28.67
			c6.12,0,11.06,0.62,14.8,1.85c2.79,0.9,5.22,2.08,7.27,3.55c2.06,1.46,3.75,3.08,5.09,4.87c1.34,1.79,2.32,3.68,2.96,5.67
			C473.11,233.08,473.43,235.08,473.43,237.1z M442.42,249.12c4.11,0,7.17-0.41,9.19-1.23c2.26-0.95,3.87-2.25,4.84-3.92
			c0.96-1.66,1.45-3.55,1.45-5.64c0-2.18-0.55-4.12-1.67-5.83c-1.11-1.7-3-2.97-5.67-3.79c-1.11-0.33-2.4-0.56-3.89-0.71
			c-1.48-0.14-3.31-0.21-5.49-0.21H428.8v21.33H442.42z M428.8,261.76V285h9.87c2.63,0,4.89-0.07,6.78-0.21s3.52-0.38,4.87-0.71
			c2.1-0.45,3.84-1.06,5.24-1.82c1.4-0.76,2.53-1.62,3.39-2.59c0.86-0.96,1.48-2.03,1.85-3.21c0.37-1.17,0.55-2.41,0.55-3.73
			c0-2.3-0.64-4.32-1.91-6.04c-1.27-1.73-3.27-3.02-5.98-3.89c-1.19-0.37-2.59-0.64-4.19-0.8c-1.6-0.16-3.66-0.25-6.16-0.25H428.8z"
			/>
		<path class="st0" d="M521.47,285h40.57v12.64h-55.67v-82.48h53.45v12.64h-38.35v21.33h32.92v12.64h-32.92V285z"/>
		<path class="st0" d="M653.11,239.94c0,5.75-1.59,10.63-4.78,14.64c-3.18,4.01-8.11,6.98-14.77,8.91v0.25l24.54,33.9h-18.12
			l-22.44-31.93h-10.36v31.93h-15.1v-82.48h25.09c4.15,0,8.02,0.23,11.59,0.71c3.58,0.47,6.64,1.18,9.19,2.13
			c4.85,1.85,8.59,4.59,11.22,8.23C651.79,229.85,653.11,234.43,653.11,239.94z M614.64,253.06c3.45,0,6.38-0.15,8.78-0.46
			c2.41-0.31,4.43-0.77,6.07-1.39c3.04-1.15,5.15-2.72,6.32-4.71c1.17-1.99,1.76-4.29,1.76-6.88c0-2.22-0.47-4.18-1.39-5.88
			c-0.93-1.71-2.5-3.05-4.72-4.04c-1.44-0.66-3.25-1.14-5.42-1.45c-2.18-0.31-4.87-0.46-8.08-0.46h-10.79v25.27H614.64z"/>
		<path class="st0" d="M719.09,297.64h-15.1v-69.84h-26.63v-12.64h68.31v12.64h-26.57V297.64z"/>
		<path class="st0" d="M831.31,215.15v8.2L787.17,285h44.69v12.64h-64.79v-8.14l44.2-61.71h-43.09v-12.64H831.31z"/>
	</g>
	<g>
		<path class="st1" d="M414.11,330.1c0-3.64,0.74-6.86,2.21-9.64c1.47-2.78,3.54-4.94,6.2-6.47s5.72-2.29,9.17-2.29
			c1.42,0,2.84,0.14,4.25,0.42c1.42,0.28,2.43,0.6,3.06,0.96v2.19c-2.67-0.96-5.04-1.43-7.11-1.43c-2.84,0-5.43,0.62-7.75,1.85
			s-4.17,3.07-5.54,5.52c-1.37,2.45-2.06,5.43-2.06,8.95c0,5,1.37,8.84,4.1,11.53c2.73,2.69,6.67,4.03,11.8,4.03
			c2.4,0,4.7-0.47,6.92-1.4v2.14c-0.87,0.45-1.95,0.8-3.24,1.04c-1.29,0.24-2.63,0.36-4.02,0.36c-5.8,0-10.25-1.54-13.35-4.61
			C415.66,340.17,414.11,335.79,414.11,330.1z"/>
		<path class="st1" d="M465.02,329.81c0-3.45,0.67-6.56,2.02-9.32c1.34-2.76,3.21-4.92,5.61-6.47c2.4-1.55,5.11-2.33,8.15-2.33
			c3.17,0,5.95,0.78,8.34,2.33c2.38,1.55,4.22,3.7,5.52,6.44c1.29,2.74,1.94,5.86,1.94,9.34c0,3.43-0.67,6.52-2,9.26
			c-1.34,2.74-3.2,4.89-5.58,6.44c-2.38,1.55-5.08,2.33-8.08,2.33c-3.21,0-6.02-0.77-8.42-2.32c-2.4-1.54-4.25-3.68-5.54-6.41
			C465.67,336.38,465.02,333.28,465.02,329.81z M494.11,329.81c0-3.33-0.59-6.21-1.77-8.63c-1.18-2.42-2.78-4.26-4.8-5.52
			c-2.02-1.26-4.27-1.89-6.75-1.89c-2.45,0-4.69,0.63-6.71,1.89c-2.03,1.26-3.64,3.1-4.83,5.52c-1.19,2.42-1.78,5.3-1.78,8.63
			c0,3.36,0.6,6.25,1.8,8.65c1.2,2.4,2.82,4.22,4.85,5.45c2.04,1.23,4.31,1.85,6.81,1.85c2.44,0,4.67-0.62,6.66-1.85
			c2-1.23,3.58-3.05,4.76-5.45C493.52,336.06,494.11,333.18,494.11,329.81z"/>
		<path class="st1" d="M522.95,345.97v-2.5c0.85,0.52,2.24,1.02,4.16,1.51c1.93,0.49,3.52,0.73,4.79,0.73
			c3.12,0,5.55-0.58,7.27-1.74c1.73-1.17,2.59-3.14,2.59-5.93c0-1.41-0.29-2.57-0.87-3.49c-0.58-0.92-1.38-1.66-2.38-2.21
			c-1-0.55-2.81-1.19-5.41-1.9c-2.26-0.57-4.07-1.14-5.44-1.7c-1.37-0.57-2.53-1.44-3.46-2.63c-0.94-1.19-1.41-2.79-1.41-4.8
			c0-2.9,1.05-5.22,3.14-6.97c2.09-1.75,4.83-2.63,8.21-2.63c2.22,0,4.39,0.32,6.51,0.96c0.85,0.31,1.61,0.64,2.29,0.96v2.5
			c-1.06-0.49-1.96-0.88-2.72-1.18c-0.75-0.3-1.66-0.57-2.73-0.79c-1.06-0.23-2.23-0.35-3.5-0.36c-3,0-5.22,0.69-6.67,2.08
			c-1.45,1.39-2.17,3.24-2.17,5.54c0,1.46,0.32,2.6,0.95,3.43c0.63,0.83,1.49,1.48,2.56,1.93c1.08,0.45,2.68,0.97,4.82,1.56
			c2.39,0.66,4.27,1.27,5.62,1.83c1.35,0.57,2.53,1.47,3.52,2.71c1,1.24,1.5,2.93,1.5,5.06c0,3.12-1.07,5.56-3.21,7.3
			c-2.14,1.74-5.19,2.61-9.15,2.61c-1.63,0-3.33-0.22-5.1-0.65C524.88,346.76,523.65,346.35,522.95,345.97z"/>
		<path class="st1" d="M574.96,312.4l10.46,24.31l3.15,7.78h0.1l13.43-32.08h3.57v34.79h-2.24v-16.08c0-5.2,0.12-10.73,0.36-16.58
			h-0.21c-2.59,5.78-4.18,9.39-4.79,10.85l-9,21.81h-2.24l-9.24-21.81c-0.45-1.07-2.06-4.69-4.84-10.85h-0.16
			c0.24,7.37,0.36,12.9,0.36,16.58v16.08h-2.29V312.4H574.96z"/>
		<path class="st1" d="M634.22,312.4h19.83v2.08h-17.54v13.84h16.06v2.08h-16.06v14.71h18.55v2.08h-20.84V312.4z"/>
		<path class="st1" d="M690.66,314.54h-11.99v-2.13h26.34v2.13h-12.05v32.66h-2.29V314.54z"/>
		<path class="st1" d="M730.15,312.4h2.29v34.79h-2.29V312.4z"/>
		<path class="st1" d="M759.88,330.1c0-3.64,0.74-6.86,2.21-9.64c1.47-2.78,3.54-4.94,6.2-6.47s5.72-2.29,9.17-2.29
			c1.42,0,2.84,0.14,4.25,0.42c1.42,0.28,2.43,0.6,3.06,0.96v2.19c-2.67-0.96-5.04-1.43-7.11-1.43c-2.84,0-5.43,0.62-7.75,1.85
			s-4.17,3.07-5.54,5.52c-1.37,2.45-2.06,5.43-2.06,8.95c0,5,1.37,8.84,4.1,11.53c2.73,2.69,6.67,4.03,11.8,4.03
			c2.4,0,4.7-0.47,6.92-1.4v2.14c-0.87,0.45-1.95,0.8-3.24,1.04c-1.29,0.24-2.63,0.36-4.02,0.36c-5.8,0-10.25-1.54-13.35-4.61
			C761.43,340.17,759.88,335.79,759.88,330.1z"/>
		<path class="st1" d="M810.79,345.97v-2.5c0.85,0.52,2.24,1.02,4.16,1.51c1.93,0.49,3.52,0.73,4.79,0.73
			c3.12,0,5.55-0.58,7.27-1.74c1.73-1.17,2.59-3.14,2.59-5.93c0-1.41-0.29-2.57-0.87-3.49c-0.58-0.92-1.38-1.66-2.38-2.21
			c-1-0.55-2.81-1.19-5.41-1.9c-2.26-0.57-4.07-1.14-5.44-1.7c-1.37-0.57-2.53-1.44-3.46-2.63c-0.94-1.19-1.41-2.79-1.41-4.8
			c0-2.9,1.05-5.22,3.14-6.97c2.09-1.75,4.83-2.63,8.21-2.63c2.22,0,4.39,0.32,6.51,0.96c0.85,0.31,1.61,0.64,2.29,0.96v2.5
			c-1.06-0.49-1.96-0.88-2.72-1.18c-0.75-0.3-1.66-0.57-2.73-0.79c-1.06-0.23-2.23-0.35-3.5-0.36c-3,0-5.22,0.69-6.67,2.08
			c-1.45,1.39-2.17,3.24-2.17,5.54c0,1.46,0.32,2.6,0.95,3.43c0.63,0.83,1.49,1.48,2.56,1.93c1.08,0.45,2.68,0.97,4.82,1.56
			c2.39,0.66,4.27,1.27,5.62,1.83c1.35,0.57,2.53,1.47,3.52,2.71c1,1.24,1.5,2.93,1.5,5.06c0,3.12-1.07,5.56-3.21,7.3
			c-2.14,1.74-5.19,2.61-9.15,2.61c-1.63,0-3.33-0.22-5.1-0.65S811.48,346.35,810.79,345.97z"/>
	</g>
	<path class="st1" d="M559.85,179.83c0.7-3.56,1.19-7.62,1.44-12.22c-12.22,17.65-38.61,25-54.55,27.38
		c9.26,1.8,25.79,3.23,45.22-10.64c-10.97,10.88-24.67,16.28-39.47,15.04C531,205.17,553.92,209.96,559.85,179.83z"/>
	<g>
		<path class="st0" d="M247.2,424.87c-7.07,8.37-21.03,13.7-40.82,17.45c-18.19,3.45-30.64,9.25-36.42,17.64
			c-3.01,4.38-5.21,13.23-2.8,22.44c1.38-5.61,5.16-11.75,12.65-17.44c11.6-8.81,30.65-6.31,48.77-17.62
			c-11.68,13.42-30.33,11.29-42.66,19.21c-7.16,4.6-13.18,13.97-12.6,21.89c5.57-6.93,20.54-9.83,33.8-13.04
			C228.12,470.33,248.79,459.68,247.2,424.87z"/>
		<path class="st0" d="M233.61,377.22c-2.11-4.28-4.84-8.9-8.25-13.9c1.34,28.16-20.32,56.9-35.03,72.11
			c11.09-5.51,29.48-17.23,38.67-47.2c-2.75,20.1-12.73,36.68-29.16,47.2C223.75,426.69,251.48,413.39,233.61,377.22z"/>
		<path class="st0" d="M164.17,452.61c-3.35-12.83,5.46-21.45,8.96-25.49c4.11-4.73,13.31-12.36,14.92-17.74
			c0.41,4.05-4.04,9.72-12.38,19.25c-7.88,9.01-10.43,17.5-6.63,24.1c6.82-19.5,39.97-27.16,20.72-59
			c-0.14-0.23-0.28-0.46-0.42-0.69C185.38,412.2,148.48,423.91,164.17,452.61z"/>
	</g>
	<g>
		<path class="st1" d="M206.98,494.67c-108.65,0-197.03-88.39-197.03-197.04S98.33,100.6,206.98,100.6
			c58.74,0,113.99,25.93,151.58,71.15l-9.59,7.98c-35.22-42.36-86.97-66.65-141.99-66.65c-101.77,0-184.56,82.79-184.56,184.56
			S105.21,482.2,206.98,482.2c83.64,0,157-56.39,178.41-137.13l12.06,3.2C374.59,434.47,296.26,494.67,206.98,494.67z"/>
	</g>
	<g>
		<polygon class="st1" points="332.65,438.65 190.27,132.66 58.53,412.79 47.24,407.48 190.33,103.22 343.96,433.39 		"/>
	</g>
	<g>
		<polygon class="st1" points="93.78,449.41 82.4,444.28 146.91,301.17 279.7,301.17 279.7,313.64 154.97,313.64 		"/>
	</g>
	<g>
		
			<rect x="-22.34" y="284.28" transform="matrix(0.4255 -0.9049 0.9049 0.4255 -184.6004 290.2334)" class="st1" width="317.28" height="12.48"/>
	</g>
</g>
</svg>
